<svg xmlns="http://www.w3.org/2000/svg" width="100" height="100"><path fill-rule="evenodd" d="M23.93 55.63a26.5 26.5 0 1 1 51.68-11.7 26.49 26.49 0 0 1-51.67 11.7h-.01zm37.11.58a38.12 38.12 0 0 0 7.35-3.95c8.03-5.7 6.82-11.07-2.88-12.74a37.58 37.58 0 0 0-8.33-.4 41.03 41.03 0 0 0 3.86 17.1zm-16.6 4.07a59.39 59.39 0 0 0 14.69-3.33 42.76 42.76 0 0 1-4-17.68 59.46 59.46 0 0 0-14.7 3.33 42.76 42.76 0 0 1 4 17.69v-.01zm-13.28-13c-8.03 5.7-6.8 11.08 2.88 12.75 2.43.42 5.25.56 8.33.4a41.03 41.03 0 0 0-3.86-17.1 38.12 38.12 0 0 0-7.35 3.97v-.01zM42.33 62.5c-4.94.24-10.82-.22-14.73-2.47a24.41 24.41 0 0 0 12.84 12.32 34.92 34.92 0 0 0 1.89-9.85zm17.72-3.69a61.67 61.67 0 0 1-15.66 3.55 37.6 37.6 0 0 1-2.03 10.7 24.45 24.45 0 0 0 24.13-5.46 37.19 37.19 0 0 1-6.44-8.8v.01zm14.16-9.33c-2.57 3.7-7.67 6.66-12.23 8.56a35.02 35.02 0 0 0 5.95 8.09 24.54 24.54 0 0 0 6.28-16.65zM57.23 37.05c4.94-.25 10.8.22 14.73 2.46A24.41 24.41 0 0 0 59.12 27.2a34.92 34.92 0 0 0-1.89 9.85zM39.5 40.73a61.75 61.75 0 0 1 15.67-3.54c.16-3.77.85-7.38 2.03-10.71a24.45 24.45 0 0 0-24.14 5.46 37.19 37.19 0 0 1 6.44 8.8zm-14.16 9.35c2.56-3.7 7.67-6.66 12.23-8.56a35.04 35.04 0 0 0-5.96-8.09 24.46 24.46 0 0 0-6.28 16.65h.01zM8.27 57.1a2.85 2.85 0 0 0 3.03 4.3 2.85 2.85 0 1 0-3.03-4.31zm-2.38 2.6a4.92 4.92 0 0 1 9.25-3.15l5.05-1.14a1.03 1.03 0 1 1 .46 2l-5.06 1.15a4.92 4.92 0 0 1-9.7 1.14zm9.36-34.1a2.86 2.86 0 1 0 1.27 5.56 2.85 2.85 0 0 0-1.27-5.56zm-3.53.15a4.92 4.92 0 0 0 7.66 6.06l4.4 2.76a1.03 1.03 0 1 0 1.1-1.75l-4.37-2.76a4.9 4.9 0 0 0-8.77-4.31h-.02zM42.46 8.27a2.85 2.85 0 0 0-4.31 3.04 2.85 2.85 0 1 0 4.3-3.04zm-2.61-2.38A4.92 4.92 0 0 1 43 15.14l1.14 5.05a1.03 1.03 0 1 1-2.02.46l-1.14-5.05a4.92 4.92 0 0 1-1.14-9.7v-.01zm34.1 9.36a2.85 2.85 0 1 0-5.55 1.27 2.85 2.85 0 0 0 5.55-1.27zm-.16-3.53a4.92 4.92 0 0 0-6.06 7.67l-2.76 4.4a1.03 1.03 0 1 0 1.75 1.1l2.76-4.4a4.9 4.9 0 0 0 4.31-8.76zm12.67 27.69a2.85 2.85 0 1 0 4.81 3.04 2.85 2.85 0 0 0-4.8-3.04zm-2.5 1.58a4.92 4.92 0 1 1 .45 2l-5.04 1.15a1.03 1.03 0 1 1-.45-2.01l5.04-1.14zm-.92 27.4a2.86 2.86 0 1 0 1.28 5.56 2.85 2.85 0 0 0-1.28-5.55v-.01zm-2.87-.66-4.38-2.76a1.03 1.03 0 1 0-1.1 1.75l4.38 2.76a4.9 4.9 0 1 0 1.1-1.75zM60.15 86.46a2.85 2.85 0 1 0-3.05 4.81 2.85 2.85 0 0 0 3.05-4.8zm-1.58-2.5a4.92 4.92 0 1 1-2.01.46l-1.14-5.05a1.03 1.03 0 1 1 2-.45l1.15 5.04zm-27.4-.92a2.86 2.86 0 1 0-5.57 1.28 2.85 2.85 0 0 0 5.56-1.27zm.65-2.87 2.76-4.38a1.03 1.03 0 1 0-1.72-1.1l-2.78 4.38a4.9 4.9 0 1 0 1.75 1.1h-.01z"/></svg>